<svg width="100" height="100" viewBox="0 0 100 100" fill="none" xmlns="http://www.w3.org/2000/svg">
<circle cx="50" cy="50" r="50" fill="white"/>
<path d="M16.426 48.15C16.3847 44.9673 17.449 42.2807 19.619 40.09C21.789 37.8993 24.4447 36.8247 27.586 36.866C30.7273 36.8247 33.383 37.8993 35.553 40.09C37.723 42.2807 38.7873 44.9673 38.746 48.15C38.7873 51.3327 37.723 54.0193 35.553 56.21C33.383 58.4007 30.7273 59.4753 27.586 59.434C24.4447 59.4753 21.789 58.4007 19.619 56.21C17.449 54.0193 16.3847 51.3327 16.426 48.15ZM32.608 53.606C33.9307 52.2213 34.592 50.4027 34.592 48.15C34.592 45.8973 33.9307 44.089 32.608 42.725C31.2853 41.3403 29.6113 40.648 27.586 40.648C25.5607 40.648 23.8867 41.3403 22.564 42.725C21.2413 44.089 20.58 45.8973 20.58 48.15C20.58 50.4027 21.2413 52.2213 22.564 53.606C23.8867 54.97 25.5607 55.652 27.586 55.652C29.6113 55.652 31.2853 54.97 32.608 53.606ZM38.2803 59V54.846H42.4343V59H38.2803ZM49.7152 59V50.506L42.5542 37.3H47.0492L51.0792 45.019C51.2858 45.4323 51.5132 45.9593 51.7612 46.6C52.0092 45.9593 52.2365 45.4323 52.4432 45.019L56.4732 37.3H60.9682L53.8072 50.506V59H49.7152ZM57.5669 59V54.846H61.7209V59H57.5669ZM63.0188 52.056L67.1108 52.49C67.1521 54.598 68.1544 55.652 70.1178 55.652C71.0684 55.652 71.8021 55.3523 72.3188 54.753C72.8561 54.1537 73.1248 53.3373 73.1248 52.304V37.3H77.2168V52.366C77.2168 54.474 76.5864 56.179 75.3258 57.481C74.0651 58.783 72.3291 59.434 70.1178 59.434C67.8858 59.434 66.1394 58.7933 64.8788 57.512C63.6388 56.21 63.0188 54.3913 63.0188 52.056ZM78.9121 59V54.846H83.0661V59H78.9121Z" fill="black"/>
</svg>
